<?xml version="1.0" encoding="UTF-8" standalone="no"?><!DOCTYPE svg PUBLIC "-//W3C//DTD SVG 1.1//EN" "http://www.w3.org/Graphics/SVG/1.1/DTD/svg11.dtd"><svg width="100%" height="100%" viewBox="0 0 1640 656" version="1.1" xmlns="http://www.w3.org/2000/svg" xmlns:xlink="http://www.w3.org/1999/xlink" xml:space="preserve" xmlns:serif="http://www.serif.com/" style="fill-rule:evenodd;clip-rule:evenodd;stroke-linejoin:round;stroke-miterlimit:2;"><g id="Fundo"><path d="M912.138,234.618c1.299,14.592 -0.679,26.594 -1.424,28.898c-2.665,8.238 -2.629,8.289 -7.416,15.488c-0.59,0.887 -4.667,5.204 -6.116,6.153c-2.506,1.641 -2.731,1.293 -5.106,3.542c-3.378,3.2 4.638,1.801 13.302,13.375c2.442,3.13 2.526,3.054 4.488,6.511c2.111,3.721 1.352,4.191 4.245,7.326c-0.102,0.698 -0.405,1.356 -0.507,2.053c-0.425,2.915 2.483,9.207 2.436,19.171c-0.042,8.824 0.573,13.226 0.732,14.366c-0.426,2.835 -2.925,15.478 -3.108,16.047c-4.325,13.408 -9.278,20.774 -20.488,29.269c-5.417,4.105 -13.761,7.706 -16.519,8.549c-13.391,4.09 -23.654,2.623 -43.043,3.063c-0.187,0.004 -27.902,0.009 -33.643,-0.09c-7.815,-0.135 -6.736,-3.573 -6.7,-23.164c0.024,-12.935 0.296,-158.237 -0.171,-161.683c-0.591,-4.359 -3.531,-3.032 -26.754,-3.127c-1.653,-0.007 -7.37,-0.441 -8.268,1.247c-1.463,2.75 -0.676,3.001 -0.74,163.562c-0.007,18.622 0.367,20.554 -2.288,22.296c-2.581,1.693 -2.886,0.827 -33.542,0.869c-6.4,0.009 -9.328,0.639 -9.413,-7.151c-0.146,-13.354 0.127,-176.324 -0.15,-177.781c-0.757,-3.989 -3.294,-3.023 -20.872,-3.048c-9.642,-0.014 -13.841,-0.297 -14.696,1.206c-0.954,1.678 -0.821,1.788 -0.855,25.876c-0.137,98.183 0.252,154.802 -0.276,156.992c-0.826,3.428 -4.432,3.787 -4.93,3.837c-1.005,0.1 -30.124,0.356 -32.228,-0.244c-4.435,-1.264 -3.58,-6.87 -3.595,-16.444c-0.162,-100.596 0.327,-104.654 1.414,-113.684c0.073,-0.603 0.784,-6.517 0.07,-7.593c-0.306,-0.461 -1.777,-0.367 -1.936,-0.014c-0.187,0.415 0.327,0.528 -1.114,5.581c-0.07,0.247 -0.322,0.424 -0.37,0.676c-0.048,0.254 0.145,0.515 0.097,0.768c-0.048,0.256 -0.32,0.433 -0.372,0.688c-0.92,4.535 -0.506,4.589 -2.225,12.645c-0.851,3.985 -0.59,4.021 -1.757,7.945c-0.48,1.615 -0.736,4.173 -4.705,19.259c-1.98,7.529 -2.008,9.111 -3.132,12.822c-1.558,5.146 -0.91,5.279 -3.178,12.823c-0.047,0.156 -6.526,28.036 -7.291,29.19c-1.899,2.866 -2.569,2.649 -21.422,2.625c-9.19,-0.012 -11.723,0.689 -13.624,-6.352c-0.859,-3.181 -0.953,-5.645 -2.681,-10.912c-1.013,-3.09 -1.372,-6.756 -2.761,-11.361c-0.269,-0.892 -0.193,-0.902 -2.869,-11.291c-1.214,-4.713 -0.855,-4.774 -2.356,-9.39c-0.913,-2.809 -1.089,-5.432 -2.694,-11.373c-2.588,-9.576 -3.274,-14.498 -5.463,-22.218c-1.092,-3.851 -3.334,-20.233 -3.53,-20.439c-0.082,-0.086 -1.935,-0.19 -2.026,-0.114c-1.334,1.115 0.376,8.032 0.573,25.219c0.094,8.2 0.439,38.189 0.317,102.507c-0.01,5.352 0.041,8.57 -6.114,8.681c-19.622,0.353 -29.998,0.024 -30.567,-0.111c-4.884,-1.165 -4.154,-3.239 -4.163,-24.584c-0.077,-181.257 -0.131,-181.226 0.033,-196.984c0.083,-7.969 3.204,-6.957 13.862,-6.958c34.365,-0.004 35.241,-0.68 36.905,2.095c1.458,2.433 0.728,2.844 3.282,11.212c1,3.276 0.882,4.362 2.88,11.316c0.595,2.07 6.722,26.474 7.958,30.446c0.022,0.07 3.378,12.87 3.697,14.284c4.48,19.801 10.41,37.256 12.351,51.391c0.032,0.233 0.382,2.783 0.515,2.891c0.318,0.258 0.81,-0.147 1.22,-0.151c0.401,-0.004 0.902,0.396 1.198,0.124c0.842,-0.772 -1.005,-1.277 2.393,-14.069c0.84,-3.164 0.426,-3.246 2.333,-9.874c0.605,-2.101 19.275,-75.084 21.654,-83.017c1.433,-4.777 2.323,-14.806 6.102,-16.137c2.171,-0.765 2.265,-0.508 166.575,-0.54c65.094,-0.012 65.079,0.118 67.28,0.449c8.262,1.244 31.813,4.847 45.354,30.294c2.457,4.618 2.623,6.859 4.481,13.007c0.572,1.893 0.408,1.913 1.45,11.266Zm-65.715,133.67c22.452,0.752 23.208,-13.153 23.92,-21.557c0.504,-5.955 0.124,-21.883 -2.105,-26.976c-4.175,-9.541 -12.578,-10.392 -28.224,-10.296c-5.011,0.031 -4.502,1.828 -4.493,6.847c0.081,49.452 -1.028,50.331 1.168,51.432c1.426,0.715 4.869,0.55 9.734,0.551Zm19.503,-140.225c0.022,0.809 0.237,0.755 0.259,1.544c0.025,0.912 -0.189,0.87 -0.168,1.753c0.062,2.731 0.384,2.864 -0.27,3.477c-0.986,0.924 -11.565,5.269 -15.78,-5.134c-1.923,-4.747 1.158,-8.617 -1.969,-9.36c-0.134,-0.032 -8.171,-0.106 -9.528,0.133c-4.19,0.74 -2.904,4.956 -2.982,22.163c-0.129,28.265 -0.291,28.964 1.64,29.787c1.158,0.494 14.766,0.843 19.079,-0.454c12.972,-3.9 12.433,-15.129 12.55,-18.128c0.055,-1.409 0.412,-10.554 0.162,-17.63c-0.018,-0.5 -0.241,-0.979 -0.25,-1.479c-0.01,-0.575 0.203,-1.139 0.192,-1.714l-1.826,-2.899c-0.498,-1.077 -0.549,-1.025 -1.105,-2.062Z" style="fill:#120f3d;"/><path d="M1009.464,236.269c-0.968,-2.67 -0.774,-2.713 -2.107,-5.243c-10.156,-19.278 -28.85,-3.268 -32.903,-7.505c-2.589,-2.706 2.815,-5.753 3.624,-14.489c1.588,-17.145 -14.125,-21.43 -14.153,-21.473c-0.199,-0.298 0.071,-0.715 0.056,-1.073c-0.016,-0.375 -0.308,-0.776 -0.148,-1.116c0.519,-1.106 10.211,-2.441 10.67,-2.484c19.169,-1.82 28.484,7.74 37.054,16.337c50.004,50.158 70.73,70.39 71.965,72.172c1.499,2.163 2.87,2.822 3.425,0.262c1.474,-6.801 1.465,-6.797 4.381,-13.076c4.4,-9.472 13.257,-16.236 14.703,-17.34c7.031,-5.369 19.408,-7.87 22.632,1.251c1.771,5.012 -0.021,10.693 -0.538,12.914c-4.988,21.431 -22.814,27.571 -33.727,36.419c-0.828,-0.515 -1.656,-1.029 -2.484,-1.544c-0.689,0.109 -1.403,-0.023 -2.092,0.087c-0.518,0.082 -0.798,0.033 -4.585,2.534c-0.328,-1.201 -0.686,-1.035 -1.009,-2.218c-0.124,-0.454 0.281,-0.402 0.169,-0.857c-1.074,-4.376 -2.421,-0.87 -2.478,-0.672c-0.127,0.438 -0.001,0.934 -0.169,1.358c-0.143,0.361 -0.577,0.551 -0.729,0.908c0,0 -0.564,2.418 -0.613,2.629c-6.798,9.277 -9.18,12.383 -20.923,19.177c-0.816,-1.109 -1.248,-0.618 -2.061,-1.723c-0.308,-0.419 0.441,-0.473 0.127,-0.907c-0.291,-0.402 -1.012,-0.317 -1.303,-0.719c-2.637,-1.267 -4.165,-1.809 -4.537,-1.941c-3.277,-1.163 -7.792,-3.731 -8.445,-4.103c0.213,-0.432 2.285,-0.623 2.184,-11.55c-0.21,-22.634 -10.65,-37.049 -17.942,-44.927c-4.695,-5.072 -4.999,-4.704 -13.11,-10.794c-0.187,-0.141 -1.851,-1.39 -2.636,-1.27c-0.822,0.126 -1.474,0.85 -2.297,0.975Z" style="fill:#c0a815;"/><path d="M516.512,424.725c-2.863,-0.089 -2.854,-0.026 -3.091,-0.096c-4.394,-1.297 -1.747,-3.744 -1.498,-3.975c1.199,-1.108 7.084,-0.898 9.39,-0.901c80.076,-0.01 160.152,-0.021 240.229,-0.031c90.188,0.109 320.934,-0.044 321.997,0.057c0.326,0.031 3.282,0.311 3.469,2.18c0.218,2.175 -1.85,2.58 -2.115,2.632c-2.12,0.415 -293.061,0.136 -318.544,0.112c-229.854,-0.221 -229.849,0.106 -249.836,0.022Z" style="fill:#356d34;"/><path d="M947.1,351.351c0.417,0.397 0.423,1.136 2.704,2.573c0.998,0.629 0.963,0.657 2.163,1.164c14.189,6.002 24.065,5.531 27.388,5.53c3.091,-0.001 3.003,0.653 3.256,0.577c0.751,-0.227 0.937,-1.414 1.689,-1.641c4.108,14.784 4.165,14.788 9.615,25.541c5.451,10.755 9.128,12.93 7.994,16.16c-0.993,2.83 -17.411,12.553 -35.53,6.846c-10.218,-3.218 -14.777,-9.609 -24.546,-18.997c-4.918,-4.726 -4.719,-4.896 -9.543,-9.695c-6.147,-6.116 -9.234,-7.306 -4.461,-12.125c9.237,-9.328 10.687,-9.281 19.271,-15.932Z" style="fill:#c9ac13;"/><path d="M1092.695,295.486c-0.96,9.452 -2.143,15.78 -7.251,22.694c-4.622,6.256 -9.225,10.094 -9.228,10.097c-2.954,2.937 -11.354,11.612 -17.629,17.614c-2.934,2.806 -2.691,3.03 -19.976,20.062c-22.685,22.353 -22.344,23.127 -24.012,23.148c-0.413,0.005 -1.957,0.025 -3.508,-3.789c-5.584,-13.727 -3.571,-33.233 -3.534,-33.716c0.89,0.031 1.584,0.974 2.474,1.006c0.148,0.005 5.217,-3.162 5.667,-3.443c7.256,-4.533 13.359,-11.284 14.378,-12.411c1.512,-1.672 1.511,-1.636 3.032,-3.269c1.792,-1.923 1.633,-2.032 2.261,-4.579c1.259,-0.385 1.476,-0.152 4.715,-1.648c8.072,-3.729 10.848,-3.569 14.229,-5.206c16.58,-8.023 23.535,-17.01 26.164,-19.929c2.961,-3.289 9.816,-8.326 10.612,-7.988c0.645,0.274 0.962,1.082 1.607,1.356Z" style="fill:#c9ac14;"/><path d="M912.138,234.618c3.893,-4.878 3.785,-4.927 8.064,-9.504c9.491,-10.151 13.464,-12.682 11.455,-14.859c-0.801,-0.868 -0.942,-0.567 -2.101,-0.858c-2.871,-0.722 -10.121,-3.793 -8.902,-8.193c1.025,-3.701 9.867,-2.142 12.245,-2.187c9.529,-0.179 8.332,-10.148 22.433,-12.412c1.388,-0.223 1.57,-0.441 2.466,0.685c1.623,2.041 -1.717,3.228 -7.474,8.673c-0.925,0.874 -8.501,8.04 -11.296,11.202c-0.533,0.603 -2.726,3.085 -1.688,9.917c1.879,12.363 12.475,14.571 12.671,14.843c0.052,0.071 0.067,2.196 0.015,2.29c-0.268,0.482 -0.614,0.049 -5.713,3.868c-0.714,-0.321 -1.078,-1.198 -1.792,-1.519c-2.356,-1.06 -10.611,8.226 -11.386,9.098c-9.526,10.715 -9.511,11.717 -11.729,15.841c-0.41,0.762 -3.238,6.02 -4.413,9.881c-0.618,2.029 0.064,3.229 0.067,3.406c-0.555,1.013 -1.109,2.025 -1.664,3.038c-0.111,0.235 -0.593,0.098 -0.703,0.332c-0.052,0.11 -0.032,0.114 -0.169,1.516c-0.925,9.488 -1.05,9.479 -0.592,19.019c0.115,2.407 -0.262,3.004 -0.303,3.471c-4.298,-0.892 -4.189,-1.362 -4.566,-1.312c-0.687,0.09 -0.995,1.132 -1.682,1.222c-8.664,-11.574 -16.68,-10.175 -13.302,-13.375c2.374,-2.249 2.6,-1.901 5.106,-3.542c1.449,-0.949 5.526,-5.266 6.116,-6.153c4.787,-7.199 4.751,-7.25 7.416,-15.488c0.745,-2.304 2.723,-14.306 1.424,-28.898Z" style="fill:#c5ab1c;"/><path d="M912.511,487.891c5.026,-30.589 6.381,-32.679 6.891,-35.576c1.188,-6.748 1.071,-6.771 1.588,-8.164c1.197,-3.222 6.001,-3.461 7.25,0.239c0.357,1.057 5.621,25.336 7.109,37.073c0.759,5.983 2.164,8.3 0.762,9.412c-0.9,0.714 -4.211,0.576 -5.098,-1.441c-1.118,-2.542 0.225,-6.481 -4.5,-6.692c-3.152,-0.141 -5.536,-0.218 -6.871,1.408c-0.981,1.195 -1.019,6.555 -4.304,7.129c-1.079,0.189 -1.078,0.084 -6.324,0c-2.411,-0.039 -4.248,0.811 -5.767,-3.809c-3.316,-10.088 -3.93,-16.314 -7.237,-16.675c-0.323,-0.035 -2.714,-0.296 -3.245,2.448c-0.205,1.06 0.108,14.958 -0.303,15.912c-1.471,3.418 -5.697,2.211 -6.328,0.252c-0.778,-2.415 0.648,-2.51 -0.234,-20.955c-0.394,-8.25 0.454,-8.239 -0.004,-20.81c-0.183,-5.031 0.361,-6.106 5.374,-6.128c10.619,-0.046 19.975,-0.626 18.666,17.25c-0.641,8.746 -4.311,8.035 -4.852,11.176c-0.376,2.179 3.164,10.911 4.036,16.047c0.226,1.329 -0.373,1.931 0.988,2.083c0.798,0.089 1.605,-0.268 2.403,-0.179Zm-9.076,-35.351c-1.13,-2.429 -0.544,-3.008 -2.961,-4.135c-1.272,-0.593 -4.374,-1.128 -5.953,-0.63c-1.921,0.605 -2.055,2.47 -1.897,12.684c0.023,1.517 -0.022,4.061 3.475,4.19c8.918,0.329 7.566,-7.595 7.335,-12.108Zm22.317,3.615c-0.599,0.001 -0.256,-0.66 -0.85,-0.659c-0.099,0 -0.54,0.001 -1.048,0.661c-0.855,1.111 -1.495,9.922 -1.558,10.792c-0.344,4.743 -4.126,10.363 2.642,10.091c3.181,-0.127 3.466,-1.418 3.096,-3.771c-0.941,-5.977 -0.955,-6.043 -1.063,-6.564c-1.087,-5.236 -0.54,-5.279 -1.219,-10.552Z" style="fill:#131233;"/><path d="M1061.995,471.656c0.226,-22.465 0.957,-22.432 1.633,-24.272c2.202,-5.994 9.681,-6.883 13.42,-6.135c9.261,1.852 9.77,10.443 9.802,15.997c0.13,23.114 -0.566,25.313 -1.229,27.405c-3.109,9.82 -18.431,8.746 -21.704,1.578c-2.458,-5.383 -1.91,-10.836 -1.922,-14.574Zm17.987,-12.804c-0.096,-4.434 -0.081,-4.406 -0.104,-4.789c-0.567,-9.78 -9.778,-8.633 -10.869,-1.626c-0.35,2.247 -0.21,26.21 -0.1,27.242c0.821,7.746 7.244,5.945 7.833,5.737c3.692,-1.303 3.136,-5.364 3.24,-26.564Z" style="fill:#111033;"/><path d="M1009.464,236.269c0.822,-0.126 1.474,-0.85 2.297,-0.975c0.785,-0.12 2.449,1.129 2.636,1.27c8.111,6.09 8.415,5.722 13.11,10.794c7.292,7.878 17.733,22.293 17.942,44.927c0.101,10.927 -1.971,11.119 -2.184,11.55c-3.162,-2.402 -3.164,-2.345 -5.619,-4.311c-7.566,-6.061 -17.677,-22.337 -21.768,-37.589c-0.177,-0.66 -1.764,-6.574 -2.152,-8.265c-2.01,-8.744 -1.772,-8.782 -4.261,-17.401Z" style="fill:#247013;"/><path d="M620.612,491.621c-3.055,-0.111 -6.245,0.567 -9.847,-3.77c-2.451,-2.952 -2.98,-3.488 -2.728,-29.002c0.058,-5.86 -0.936,-15.516 9.358,-17.655c3.242,-0.674 12.04,-0.559 14.173,8.123c0.996,4.054 1.053,31.375 -0.163,35.005c-2.641,7.88 -9.621,7.212 -10.793,7.3Zm5.328,-15.129c0.008,-1.668 0.058,-12.552 -0.082,-20.853c-0.164,-9.744 -6.795,-8.831 -8.354,-7.823c-2.923,1.89 -2.967,4.604 -3.017,7.828c-0.031,2.04 -0.35,22.726 0.308,25.505c1.422,6.01 7.938,5.929 10.218,1.544c0.688,-1.322 0.902,-5.701 0.927,-6.202Z" style="fill:#131234;"/><path d="M873.515,441.871c1.059,0.363 9.853,0.904 8.525,15.418c-0.601,6.567 -4.175,6.745 -1.47,10.822c0.172,0.259 2.208,0.899 1.717,13.218c-0.235,5.892 -2.184,6.995 -5.088,8.64c-3.968,2.247 -15.886,1.779 -17.253,0.252c-1.221,-1.363 -0.821,-3.658 -0.94,-26.566c-0.105,-20.203 0.266,-20.213 0.524,-20.648c0.741,-1.244 2.684,-1.414 2.945,-1.437c4.013,-0.351 10.16,0.218 11.04,0.3Zm-2.984,20.782c2.453,-0.838 2.968,-0.244 4.204,-2.492c1.29,-2.347 1.109,-5.649 1.082,-6.147c-0.401,-7.312 -7.584,-7.04 -9.176,-5.313c-0.552,0.599 -1.084,1.176 -0.891,10.145c0.108,5.003 2.942,3.655 4.781,3.808Zm-0.105,22.78c3.077,-0.748 3.078,-0.686 3.323,-0.807c3.433,-1.7 2.823,-9.353 2.253,-11.571c-1.329,-5.163 -7.974,-4.848 -9.31,-3.568c-1.23,1.179 -1,3.176 -0.967,10.181c0.018,3.902 -0.66,5.151 3.174,5.772c0.503,0.081 1.025,-0.087 1.527,-0.006Z" style="fill:#131135;"/><path d="M1043.641,309.61c-0.109,0.42 -1.367,5.254 -1.367,5.254c-0.066,0.77 0.404,0.688 0.29,1.446c-0.135,0.891 -0.614,0.696 -0.75,1.594c-4.005,0.594 -3.999,0.684 -8.031,0.318c-4.125,-0.374 -7.494,-1.171 -8.136,-1.322c-21.946,-5.186 -36.518,-14.171 -45.943,-20.337c-4.573,-2.992 -15.254,-11.794 -17.631,-14.137c-4.087,-4.028 -0.701,-4.405 -0.366,-4.317c0.845,0.224 4.286,3.012 4.639,3.299c3.923,3.178 4.056,2.963 6.426,4.752c8.398,6.338 24.176,13.443 30.699,15.437c4.24,1.296 5.999,2.338 6.266,2.427c2.041,0.684 2.454,-0.054 2.168,-2.178c-0.073,-0.54 -8.791,-17.682 -9.959,-33.563c-0.148,-2.012 -0.609,-2.931 1.422,-2.848c1.832,0.075 1.47,0.746 2.022,2.494c0.553,1.747 0.676,1.665 1.5,3.333c8.332,16.868 13.417,21.054 17.054,24.508c9.822,9.327 15.542,11.58 19.694,13.839Z" style="fill:#256d1a;"/><path d="M913.394,277.826c0.252,0.284 1.955,2.203 3.223,3.48c22.903,23.055 40.393,29.638 46.642,32.023c11.892,4.538 14.869,4.275 19.479,5.667c8.477,2.561 13.741,2.688 23.91,3.448c5.562,0.416 3.137,2.819 2.866,3.011c-0.832,0.587 -8.604,0.27 -9.352,0.24c-15.049,-0.613 -14.981,-1.193 -20.763,-1.817c-7.193,-0.777 -7.214,-0.483 -14.326,-1.827c-11.06,-2.09 -10.937,-2.501 -25.577,-6.461c-6.296,-1.703 -22.868,-8.669 -25.63,-10.775c-2.192,-1.672 -1.74,-2.058 -2.241,-2.65c0.041,-0.467 0.419,-1.064 0.303,-3.471c-0.458,-9.54 -0.333,-9.531 0.592,-19.019c0.137,-1.402 0.117,-1.406 0.169,-1.516c0.111,-0.235 0.593,-0.098 0.703,-0.332Z" style="fill:#236e19;"/><path d="M944.312,238.081c-1.053,0.754 -8.895,6.372 -10.389,12.417c-2.16,8.733 7.539,24.52 9.215,26.987c16.408,24.139 24.141,23.056 24.233,26.103c0.079,2.651 -3.508,0.924 -3.787,0.79c-12.709,-6.118 -12.946,-5.561 -22.536,-10.739c-3.474,-1.875 -13.504,-8.23 -16.423,-10.532c-6.65,-5.244 -6.614,-5.245 -9.567,-8.318c-0.003,-0.178 -0.685,-1.377 -0.067,-3.406c1.175,-3.861 4.003,-9.119 4.413,-9.881c2.218,-4.124 2.204,-5.126 11.729,-15.841c0.775,-0.871 9.03,-10.157 11.386,-9.098c0.714,0.321 1.078,1.198 1.792,1.519Z" style="fill:#266f16;"/><path d="M528.576,470.971c0.068,-0.382 0.318,-0.716 0.386,-1.098c0.179,-0.997 0.213,-2.015 0.351,-3.019c0.283,-2.069 2.218,-9.891 2.714,-11.388c3.945,-11.908 3.017,-13.514 6.933,-13.85c5.081,-0.436 4.475,3.555 4.48,6.014c0.007,3.202 0.079,38.081 0.019,40.029c-0.144,4.714 -4.583,3.79 -5.582,2.705c-2.049,-2.226 -0.211,-24.406 -0.166,-25.187c0.167,-2.865 1.398,-7.042 -0.386,-6.915c-1.563,0.111 -1.317,0.614 -1.616,2.171c-0.161,0.839 -0.16,1.714 -0.414,2.53c-0.112,0.36 -0.518,0.568 -0.66,0.917c-0.222,0.545 -1.358,7.48 -1.936,9.45c-2.571,8.76 -2.17,9.096 -3.298,9.662c-5.004,2.512 -5.758,-4.195 -7.682,-11.474c-0.737,-2.787 -0.991,-5.443 -1.14,-6.022c-0.096,-0.374 -1.141,-4.453 -1.357,-4.629c-0.281,-0.23 -0.724,0.085 -1.087,0.07c-0.377,-0.016 -0.848,-0.421 -1.121,-0.16c-0.473,0.45 1.162,16.327 0.832,26.886c-0.15,4.797 -4.527,3.769 -5.472,2.632c-0.929,-1.117 -0.839,-1.296 -0.875,-28.24c-0.023,-17.787 -0.621,-20.244 3.43,-20.522c5.331,-0.366 5.2,3.782 6.84,9.153c1.815,5.944 1.256,6.06 2.52,9.838c2.026,6.057 1.059,6.292 2.034,9.388c0.432,1.371 0.827,1.048 2.254,1.06Z" style="fill:#121035;"/><path d="M581.382,446.222c1.613,8.536 3.424,12.213 4.997,20.896c0.417,2.301 -0.064,3.401 2.264,3.115c1.3,-0.16 0.928,-0.634 1.099,-1.934c1.295,-9.822 2.368,-9.562 4.873,-19.152c0.661,-2.532 0.66,-6.873 5.196,-7.449c0.368,-0.047 3.225,-0.409 3.861,2.569c0.636,2.974 -0.49,5.497 0.234,40.192c0.008,0.372 0.089,4.286 -0.04,4.653c-1.002,2.851 -5.713,3.613 -6.171,-1.396c-0.503,-5.508 0.883,-24.424 0.443,-25.636c-0.045,-0.123 -0.499,-1.371 -1.325,-0.962c-0.212,0.105 -0.168,0.455 -0.329,0.629c-0.26,0.282 -0.7,0.387 -0.905,0.711c-0.325,0.515 -3.535,18.623 -5.505,20.293c-1.348,1.143 -4.252,0.729 -5.133,-1.256c-0.796,-1.794 -3.254,-13.573 -3.658,-15.062c-1.417,-5.231 -0.95,-5.312 -1.152,-5.734c-0.193,-0.403 -0.801,-0.398 -1.184,-0.628c-0.297,-0.178 -0.535,-0.732 -0.854,-0.595c-1.169,0.504 0.99,20.184 0.59,28.187c-0.265,5.305 -4.925,3.474 -5.492,2.546c-1.408,-2.302 -1.579,-44.917 -0.388,-47.182c0.982,-1.869 4.134,-1.479 4.509,-1.432c3.27,0.405 3.85,4.107 4.067,4.628Z" style="fill:#111032;"/><path d="M1034.665,476.457c0.03,-22.489 -0.188,-22.45 -0.098,-27.222c0.108,-5.722 0.152,-7.499 4.069,-7.66c12.692,-0.524 16.439,1.014 18.907,6.199c1.494,3.139 0.724,13.414 0.554,14.349c-1.082,5.945 -5.512,5.176 -3.598,11.185c0.367,1.151 3.786,11.89 4.213,14.501c0.068,0.416 0.806,4.932 -4.149,3.257c-3.778,-1.277 -5.284,-17.168 -7.834,-19.53c-1.156,-1.07 -3.976,-0.683 -4.706,0.267c-1.165,1.517 -0.49,13.671 -0.669,15.841c-0.435,5.301 -5.022,3.44 -5.651,2.89c-1.59,-1.391 -1.097,-10.703 -1.038,-14.078Zm17.788,-19.224c-0.003,-0.525 -0.028,-4.858 -0.823,-6.51c-1.248,-2.596 -6.059,-3.428 -8.157,-2.901c-2.25,0.566 -2.295,2.557 -2.136,12.64c0.027,1.7 -0.026,4.237 3.681,4.243c8.047,0.014 7.32,-6.611 7.435,-7.472Z" style="fill:#121134;"/><path d="M650.929,441.831c4.009,1.189 10.05,1.669 9.07,16.935c-0.59,9.188 -5.224,8.173 -4.405,12.947c0.361,2.101 5.476,16.847 4.465,18.67c-0.767,1.382 -4.825,1.334 -5.959,-1.028c-1.075,-2.24 -4.1,-16.676 -6.155,-17.831c-5.028,-2.826 -5.16,2.842 -5.172,3.334c-0.189,8.082 0.811,15.136 -1.307,16.088c-2.196,0.988 -4.725,-0.106 -5.21,-1.505c-0.572,-1.651 0.384,-16.684 -0.226,-41.81c-0.103,-4.242 -0.365,-5.415 3.825,-5.996c3.058,-0.424 10.191,0.127 11.074,0.195Zm-3.151,22.793c2.974,-0.86 3.153,-0.543 4.227,-1.617c2.085,-2.085 1.802,-8.768 1.388,-10.743c-1.186,-5.655 -8.636,-4.787 -9.661,-3.869c-0.721,0.646 -1.255,1.125 -0.958,12.062c0.131,4.826 2.435,4.09 5.003,4.167Z" style="fill:#100f30;"/><path d="M799.457,472.932c0.003,-0.031 0.395,-1.294 0.294,-2.904c-0.268,-4.263 -0.982,-4.229 -0.717,-23.989c0.006,-0.413 0.056,-4.186 2.595,-4.457c0.359,-0.038 3.066,-0.327 3.548,2.791c0.167,1.084 0.096,33.524 0.094,38.492c-0.001,2.26 0.623,7.599 -1.973,8.352c-0.984,0.286 -3.819,0.278 -4.99,-1.893c-0.519,-0.962 -4.968,-13.069 -5.388,-14.211c-3.116,-8.479 -4.671,-15.414 -4.882,-15.684c-0.284,-0.364 -1.675,-0.432 -1.875,-0.193c-1.209,1.454 0.39,1.747 0.46,23.636c0.002,0.501 0.019,5.909 -0.103,6.266c-1.055,3.098 -5.136,2.83 -5.567,0.05c-0.451,-2.905 -0.855,-5.513 -0.827,-36.739c0.005,-5.564 0.638,-9.521 0.68,-9.579c0.831,-1.147 5.203,-2.771 7.301,1.851c0.501,1.104 0,1.274 5.117,14.271c0.581,1.476 2.328,6.423 3.362,11.171c0.047,0.215 0.554,2.543 0.743,2.644c0.626,0.334 1.5,-0.21 2.127,0.125Z" style="fill:#121134;"/><path d="M674.975,491.051c-0.127,-0.791 -0.725,-0.683 -0.548,-3.41c0.142,-2.188 0.439,-6.765 4.518,-27.028c3.305,-16.417 3.41,-17.779 5.379,-18.512c4.06,-1.511 5.293,1.764 5.459,2.205c0.479,1.274 1.189,6.904 2.67,13c0.308,1.269 0.21,1.274 3.246,15.992c0.986,4.781 0.643,4.815 1.734,9.587c1.446,6.32 0.114,8.119 0.113,8.126c-0.564,-0.006 -1.096,0.34 -1.66,0.334c-4.483,-0.045 -3.721,-6.421 -5.357,-7.843c-0.953,-0.829 -7.628,-1.869 -9.559,0.626c-0.317,0.409 -0.224,0.452 -0.885,3.596c-1.045,4.965 -4.597,3.303 -5.11,3.326Zm12.214,-35.023c-0.532,0.019 -0.385,-0.437 -0.919,-0.418c-0.092,0.003 -0.687,0.024 -1.049,0.488c-0.198,0.254 -0.673,3.946 -0.718,4.291c-1.83,14.223 -2.663,14.565 -1.301,15.939c0.306,0.309 7.805,2.887 6.349,-3.084c-2.069,-8.489 -1.041,-8.615 -2.363,-17.216Z" style="fill:#111033;"/><path d="M832.026,491.736c-1.097,-0.164 -2.214,-0.171 -3.311,-0.335c-6.019,-0.901 -8.389,-7.263 -8.139,-11.752c0.271,-4.857 4.615,-3.411 4.976,-3.104c1.377,1.173 0.994,1.408 1.225,3.19c0.083,0.641 0.753,5.806 5.254,6.139c6.447,0.477 5.643,-7.447 5.102,-9.485c-1.346,-5.069 -9.205,-8.595 -12.525,-11.775c-5.377,-5.153 -4.154,-13.732 -2.936,-17.239c2.821,-8.118 19.659,-10.091 21.748,3.44c1.182,7.653 -4.889,5.102 -5.075,4.92c-1.327,-1.292 -0.79,-1.547 -1.053,-3.361c-1.197,-8.264 -10.866,-6.075 -10.282,1.682c0.789,10.487 16.722,9.861 17.147,24.054c0.437,14.595 -10.85,13.535 -12.129,13.626Z" style="fill:#111131;"/><path d="M948.895,491.592c-2.74,-0.334 -6.728,0.034 -9.08,-5.845c-0.529,-1.322 -1.274,-6.344 -0.933,-7.912c0.572,-2.63 3.429,-1.79 3.745,-1.697c1.591,0.468 1.935,3.155 1.975,3.472c0.066,0.515 0.044,1.044 0.158,1.55c0.11,0.487 0.914,4.061 4.234,4.579c5.07,0.791 6.028,-3.909 6.15,-4.507c1.77,-8.682 -7.705,-12.257 -12.178,-16.473c-0.943,-0.889 -6.368,-6.002 -4.169,-15.657c1.177,-5.17 6.605,-8.324 11.739,-8.15c8.37,0.283 11.267,7.281 10.758,12.999c-0.347,3.901 -4.236,2.385 -4.618,2.236c-2.373,-0.925 -1.39,-5.944 -3.547,-7.91c-2.904,-2.645 -7.729,-0.598 -8.224,4.238c-0.72,7.034 7.322,10.687 11.824,14.584c8.989,7.782 3.519,19.721 3.063,20.333c-3.845,5.152 -9.381,4.145 -10.897,4.159Z" style="fill:#111032;"/><path d="M947.1,351.351c0.301,-0.205 2.12,-1.445 3.712,-2.636c6.894,-5.16 19.476,-11.135 23.646,-12.002c7.486,-1.556 6.848,2.507 7.119,5.172c0.708,6.956 1.514,9.183 2.723,17.669c-0.751,0.227 -0.937,1.414 -1.689,1.641c-0.253,0.077 -0.165,-0.578 -3.256,-0.577c-3.323,0.001 -13.2,0.472 -27.388,-5.53c-1.199,-0.507 -1.165,-0.535 -2.163,-1.164c-2.281,-1.437 -2.286,-2.176 -2.704,-2.573Z" style="fill:#236d15;"/><path d="M561.337,462.791c0.525,0.046 1.056,-0.027 1.581,0.019c0.353,0.031 3.385,0.295 3.772,2.31c0.065,0.338 0.595,3.104 -2.002,3.808c-2.007,0.544 -8.93,-1.217 -9.604,2.757c-0.113,0.666 -0.145,10.787 -0.085,11.177c0.383,2.464 2.867,2.555 3.195,2.567c2.282,0.083 10.006,-0.516 10.566,1.314c0.1,0.326 0.983,3.214 -1.006,4.138c-1.047,0.487 -1.532,0.712 -14.42,0.52c-5.751,-0.086 -4.96,-2.352 -4.97,-10.136c-0.046,-37.2 -0.099,-37.286 0.449,-38.255c0.622,-1.101 1.071,-1.894 15.73,-1.537c0.333,0.008 4.439,-0.381 3.931,2.938c-0.733,4.786 -2.903,2.61 -10.329,3.239c-1.83,0.155 -3.009,1.257 -3.131,3.195c-0.007,0.111 -0.046,7.93 -0.044,8.001c0.094,4.49 1.878,3.585 6.367,3.944Z" style="fill:#110f32;"/><path d="M756.688,442.754c2.985,-1.48 3.127,-0.87 6.445,-0.994c4.8,-0.18 4.772,0.046 9.605,0.035c3.971,-0.009 5.114,0.885 3.634,4.569c-0.722,1.799 -6.225,1.289 -6.821,1.291c-4.908,0.014 -6.458,-0.125 -6.436,4.788c0.034,7.373 -0.086,7.377 0.027,8.007c0.665,3.689 6.828,2.073 9.75,2.566c2.607,0.439 2.78,4.124 1.432,5.401c-0.623,0.59 -2.902,0.647 -3.16,0.654c-2.394,0.06 -2.358,-0.07 -4.774,0.02c-3.755,0.141 -3.264,2.916 -3.346,12.176c-0.002,0.241 -0.02,2.215 0.468,2.975c1.229,1.918 9.373,1.053 10.925,1.281c1.971,0.29 2.431,0.32 2.442,2.322c0.01,1.785 0.714,2.257 -0.906,3.062c-1.035,0.514 -1.315,0.653 -14.44,0.488c-6.034,-0.076 -4.998,-2.468 -4.994,-8.518c0.022,-31.393 -0.23,-31.408 0.686,-36.937c-0.179,-1.062 -0.359,-2.125 -0.538,-3.187Z" style="fill:#141335;"/><path d="M1005.872,454.073c-0.108,4.832 -0.365,4.831 0.072,6.536c0.63,2.457 1.281,2.134 3.804,2.173c0.4,0.006 6.395,-0.478 7.513,1.236c0.242,0.371 1.727,4.37 -2.599,4.973c-0.876,0.122 -6.844,-0.354 -8.17,0.987c-1.085,1.097 -0.988,13.372 0.046,14.531c1.539,1.725 11.329,0.239 12.803,1.643c0.706,0.672 0.87,3.966 0.026,4.685c-0.767,0.653 -3.316,0.551 -12.781,0.56c-0.502,0.001 -5.597,0.006 -6.218,-0.813c-0.009,-0.012 -0.812,-6.91 -0.851,-7.728c-0.135,-2.83 -0.142,-29.439 -0.143,-31.999c-0,-0.648 -0.002,-7.239 0.737,-8.072c1.429,-1.613 5.177,-1.201 12.879,-1.208c0.48,-0 5.212,-0.005 5.992,0.412c0.439,0.235 3.123,5.448 -2.791,5.594c-2.757,0.068 -9.141,-0.583 -9.98,1.443c-0.775,1.871 -0.347,1.931 -0.337,5.047Z" style="fill:#161537;"/><path d="M753.92,442.36c-0.167,3.638 -0.127,3.619 -0.18,3.929c-0.05,0.293 -0.299,0.527 -0.35,0.82c-4.248,0.68 -4.262,0.56 -4.623,0.656c-1.318,0.349 -1.661,1.266 -1.724,1.434c-0.657,1.754 -0.168,33.713 -0.321,38.448c-0.168,5.217 -5.454,3.948 -6.242,1.732c-0.659,-1.855 -0.076,-35.142 -0.294,-38.49c-0.312,-4.792 -4.985,-2.563 -7.017,-3.881c-0.979,-0.635 -2.233,-4.084 1.255,-5.328c0.685,-0.244 16.655,-0.246 17.468,-0.152c1.64,0.189 1.467,0.602 2.028,0.832Z" style="fill:#121131;"/><path d="M996.708,490.482c-0.448,0.139 -0.782,0.545 -1.229,0.684c-1.795,0.559 -13.376,0.249 -14.539,0.218c-4.277,-0.115 -4.032,-2.193 -4.051,-6.921c-0.013,-3.214 -0.158,-38.817 0.085,-40.178c0.809,-4.536 5.445,-2.353 5.825,-1.646c1.011,1.883 0.743,5.749 0.744,6.589c0.028,33.278 -0.24,34.294 0.597,35.263c1.577,1.826 11.589,0.134 12.572,2.107c0.192,0.386 -0.207,0.845 -0.207,1.275c-0,0.872 0.205,1.736 0.205,2.609Z" style="fill:#161435;"/><path d="M702.372,490.736c-0.963,-5.488 -0.677,-5.501 -0.988,-11.057c-0.15,-2.68 -0.117,-32.631 -0.076,-33.633c0.288,-6.969 5.489,-3.704 5.865,-3.27c0.572,0.661 0.588,4.455 0.59,4.846c0.155,35.449 -0.408,35.749 0.779,37.007c1.069,1.133 9.093,0.77 9.836,0.873c4.281,0.595 2.835,4.37 2.477,4.81c-0.778,0.957 -1.116,1.371 -15.378,1.07c-2.48,-0.052 -2.364,-0.492 -3.105,-0.646Z" style="fill:#141334;"/><path d="M972.068,446.011c0.002,0.086 0.001,0.086 0.016,40.061c0,0.371 0.001,3.694 -0.969,4.539c-0.024,0.021 -5.046,2.904 -5.61,-2.973c-0.122,-1.271 0.355,-1.273 -0.009,-15.959c-0.05,-2.028 -0.123,-27.593 0.213,-28.476c0.713,-1.872 5.538,-2.603 6.261,1.081c0.111,0.566 -0.013,1.161 0.098,1.727Z" style="fill:#121132;"/><path d="M670.023,490.535c-0.472,0.113 -0.825,0.549 -1.297,0.661c-0.323,0.077 -2.986,0.713 -3.807,-1.64c-1.068,-3.061 -0.141,-24.803 -0.469,-40.339c-0.008,-0.402 -0.664,-6.358 1.352,-7.289c1.261,-0.583 4.706,-0.393 5.151,2.349c0.436,2.686 -0.034,19.581 0.079,25.781c0.267,14.6 -0.661,18.874 -1.009,20.477Z" style="fill:#100f2e;"/><path d="M816.519,470.062c-0.091,17.814 0.232,17.855 -0.23,19.331c-0.54,1.728 -5.486,4.092 -6.104,-1.744c-0.324,-3.057 0.059,-3.048 -0.043,-38.423c-0.002,-0.713 -0.297,-4.733 0.749,-6.681c0.231,-0.431 5.617,-3.073 5.577,3.481c-0.073,12.037 0.024,12.01 0.05,24.037Z" style="fill:#121234;"/><path d="M1029.722,471.663c0.039,1.428 0.441,16.046 -0.179,17.86c-0.762,2.227 -4.908,2.563 -5.536,-0.144c-0.896,-3.866 -0.619,-37.66 -0.491,-40.136c0.027,-0.518 0.311,-6.026 0.632,-6.449c0.811,-1.07 4.825,-2.531 5.491,1.526c0.354,2.159 0.053,2.167 0.083,27.344Z" style="fill:#161538;"/><path d="M1035.368,328.9c-0.628,2.546 -0.47,2.656 -2.261,4.579c-1.521,1.632 -1.521,1.596 -3.032,3.269c-1.019,1.127 -7.122,7.878 -14.378,12.411c-0.45,0.281 -5.519,3.448 -5.667,3.443c-0.89,-0.031 -1.584,-0.974 -2.474,-1.006c0.428,-3.039 0.408,-3.022 0.462,-3.282c2.517,-12.182 4.002,-13.032 6.698,-13.889c3.47,-1.104 3.795,0.102 20.652,-5.525Z" style="fill:#246a10;"/><path d="M1098.783,253.414l1.874,2.246l0.632,0.71c0.147,1.21 0.295,2.42 0.442,3.63l1.385,1.849c0.836,0.55 0.852,0.49 1.643,1.08c0.839,0.626 0.899,0.531 0.959,0.6c0.387,0.442 0.507,1.077 0.894,1.52l-0.694,1.913c-0.477,-0.285 -1.139,-0.127 -1.617,-0.412c-0,-0 -2.96,-2.701 -3.217,-2.936c-0.257,-0.17 -3.21,-2.122 -3.21,-2.122c-0.557,0.347 -0.363,1.342 -0.152,1.963c0.221,0.653 1.128,0.914 1.349,1.567l0.636,1.623l-1.749,1.907c-0.516,0.22 -1.15,-0.451 -1.666,-0.232c-1.904,0.81 -1.267,1.522 0.083,3.117c1.261,1.49 2.39,1.779 2.521,1.884c0.388,0.312 0.625,0.777 0.962,1.143c1.962,2.13 4.625,3.376 4.949,3.64c0.2,0.163 0.079,0.558 0.279,0.721c-6.077,3.561 -5.973,3.678 -11.794,7.605c-1.425,-1.264 -2.351,-0.717 -2.939,-3.879c-0.585,-3.146 -1.024,-3.116 -0.556,-6.289c1.754,-11.885 4.223,-16.367 8.987,-22.849Z" style="fill:#e6efe1;"/><path d="M914.111,315.911c0.616,0.092 0.712,-0.485 2.777,0.414c1.316,0.573 1.592,0.907 1.827,1.041c-1.238,2.948 -2.054,2.96 -1.203,4.581c0.093,0.177 0.221,0.064 1.325,2.117c0.525,0.976 4.526,8.42 7.47,11.665c0.224,0.246 0.156,0.265 2.114,3.583c-0.611,0.87 -0.545,0.892 -1.216,1.73c-7.285,9.111 -6.966,9.396 -7.804,9.965c-0.739,0.501 -1.892,-0.006 -2.631,0.495c-0.159,-1.14 -0.774,-5.542 -0.732,-14.366c0.048,-9.964 -2.861,-16.257 -2.436,-19.171c0.102,-0.698 0.405,-1.356 0.507,-2.053Z" style="fill:#bca82b;"/><path d="M918.716,317.366c16.984,8.803 17.375,7.983 18.707,8.974c0.252,0.187 2.031,1.511 -0.242,3.914c-6.263,6.619 -8.037,8.353 -8.758,9.058c-1.958,-3.318 -1.89,-3.336 -2.114,-3.583c-2.944,-3.246 -6.945,-10.689 -7.47,-11.665c-1.103,-2.053 -1.232,-1.94 -1.325,-2.117c-0.851,-1.621 -0.035,-1.633 1.203,-4.581Z" style="fill:#246812;"/><path d="M1105.367,246.665c3.078,-2.574 3.042,-2.612 6.556,-4.571c2.078,-1.158 6.214,-2.242 8.481,-1.793c7.196,1.426 4.211,11.375 3.817,13.672l-2.049,-1.726c-0.305,-0.47 0.046,-1.192 -0.259,-1.662c-0.249,-0.385 -0.846,-0.367 -1.224,-0.625c-0.066,-0.045 -4.285,-4.231 -5.204,-3.945c-0.623,0.194 -0.726,1.226 -1.349,1.419c-0.183,1.26 -0.367,2.521 -0.55,3.781c-0.865,-0.021 -0.437,-0.896 -1.302,-0.917c-0.101,-0.002 -0.143,-0.003 -0.916,0.863c-0.313,0.351 -0.542,0.771 -0.855,1.122c-0.214,-0.164 -2.673,-2.05 -2.673,-2.05c-0.919,-1.117 -1.553,-2.449 -2.472,-3.567Z" style="fill:#dce9d9;"/><path d="M865.927,228.062c-0.91,-1.5 -0.597,-1.748 -3.026,-3.66c-6.214,-4.89 -9.652,-2.959 -9.542,-5.716c0.075,-1.893 0.611,-1.714 2.419,-2.232c6.661,-1.91 12.669,1.59 13.584,6.87c0.836,4.824 -0.115,4.8 -0.504,9.697c-0.146,-0.232 -1.826,-2.899 -1.826,-2.899c-0.498,-1.077 -0.549,-1.025 -1.105,-2.062Z" style="fill:#f3f3fa;"/><path d="M1043.641,309.61c9.597,2.019 9.689,3.073 11.105,2.167c0.68,-0.435 0.823,-1.463 1.502,-1.898c0.291,0.402 1.012,0.317 1.303,0.719c0.314,0.434 -0.435,0.487 -0.127,0.907c0.813,1.104 1.245,0.614 2.061,1.723c-3.077,1.754 -7.565,4.541 -17.671,4.676c0.136,-0.899 0.615,-0.704 0.75,-1.594c0.115,-0.758 -0.356,-0.675 -0.29,-1.446c0,0 1.258,-4.833 1.367,-5.254Z" style="fill:#c2ab24;"/><path d="M1112.365,258.282l1.13,0.894c2.093,1.913 1.869,2.103 2.052,2.265c0.426,0.377 1.032,0.512 1.459,0.889c0.741,1.078 1.482,2.157 2.224,3.235c-3.002,4.228 -3.047,4.179 -6.799,7.726c-1.113,-1.013 -2.225,-2.027 -3.338,-3.04l1.577,-1.99l0.643,-1.51c0.302,-0.229 0.623,-0.433 0.926,-0.663c0.206,-0.156 2.279,-1.729 1.84,-2.656c-0.167,-0.352 -0.268,-0.227 -3.711,-3.144c0.666,-0.669 1.333,-1.338 1.999,-2.007Z" style="fill:#9fba99;"/><path d="M1097.958,268.553c2.887,2.67 2.855,2.669 3.118,2.884c3.177,2.6 2.877,3.002 3.229,3.05c0,0 2.604,-1.26 2.831,-1.369c0.652,-0.955 1.303,-1.91 1.955,-2.866c1.113,1.013 2.225,2.027 3.338,3.04c-1.81,1.939 -1.613,2.163 -3.292,3.07c-2.089,1.129 -2.008,1.221 -4.052,2.464c-0.2,-0.163 -0.079,-0.558 -0.279,-0.721c-0.324,-0.263 -2.987,-1.51 -4.949,-3.64c-0.337,-0.366 -0.574,-0.831 -0.962,-1.143c-0.131,-0.105 -1.261,-0.394 -2.521,-1.884c-1.35,-1.595 -1.986,-2.307 -0.083,-3.117c0.516,-0.22 1.15,0.451 1.666,0.232Z" style="fill:#8bad86;"/><path d="M1105.367,246.665c0.919,1.117 1.553,2.449 2.472,3.567c0,0 2.459,1.886 2.673,2.05c1.138,1.05 2.276,2.099 3.414,3.149c-0.143,1.249 -0.287,2.498 -0.43,3.746l-1.13,-0.894c-3.919,-4.208 -4.342,-3.691 -4.889,-4.143c-0.627,-0.519 -0.806,-1.797 -1.619,-1.826c-0.839,-0.03 -1.018,1.732 -1.857,1.702c-1.114,0.548 -2.228,1.097 -3.342,1.645l-1.874,-2.246c0.415,-0.63 2.382,-3.618 6.583,-6.75Z" style="fill:#ecf3e9;"/><path d="M770.752,431.957c0.281,0.332 3.18,3.751 3.072,4.489c-0.233,1.586 -2.35,1.312 -2.579,1.283c-1.214,-0.157 -3.413,-2.639 -4.724,-2.289c-0.649,0.173 -1.075,0.805 -1.6,1.223c-0.207,0.165 -1.945,1.549 -3.174,0.957c-2.857,-1.376 -1.039,-2.257 0.93,-4.711c3.285,-4.095 5.727,-2.8 8.075,-0.951Z" style="fill:#1b1b32;"/><path d="M1113.584,251.213c1.959,1.876 1.834,1.985 9.026,7.963c-1.418,3.375 -1.318,3.406 -3.382,6.389c-0.741,-1.078 -1.482,-2.157 -2.224,-3.235c0.171,-0.614 0.17,-1.268 0.341,-1.882c0.169,-0.607 0.692,-1.137 0.675,-1.767c-0.007,-0.251 -0.52,-0.052 -0.728,-0.193c-0,-0 -3.098,-2.814 -3.367,-3.059c-1.138,-1.05 -2.276,-2.099 -3.414,-3.149c0.313,-0.351 0.542,-0.771 0.855,-1.122c0.773,-0.867 0.815,-0.866 0.916,-0.863c0.865,0.021 0.437,0.896 1.302,0.917Z" style="fill:#aabfa8;"/><path d="M1103.999,254.015c0.825,0.871 1.047,0.578 1.86,1.436c0.714,0.754 0.454,0.917 1.13,1.719c0.132,0.157 0.225,0.01 1.946,1.669c0.489,0.471 0.942,0.978 1.431,1.449c3.444,2.918 3.544,2.793 3.711,3.144c0.44,0.927 -1.634,2.5 -1.84,2.656c-0.302,0.229 -0.623,0.433 -0.926,0.663c-0.225,-0.573 -0.098,-1.245 -0.323,-1.817c-0.191,-0.487 -0.549,-0.898 -0.897,-1.289c-0.215,-0.241 -0.568,-0.335 -0.771,-0.585c-0.144,-0.178 -0.046,-0.511 -0.23,-0.647c-0.46,-0.339 -1.11,-0.348 -1.574,-0.683c-0.285,-0.206 -0.115,-0.386 -3.23,-2.973c-1.476,-1.226 -1.471,-1.171 -2.997,-2.385l-0.632,-0.71c1.114,-0.548 2.228,-1.097 3.342,-1.645Z" style="fill:#e3efe0;"/><path d="M1114.134,247.433c1.485,1.618 1.342,1.723 2.952,3.216c0.262,0.243 3.124,2.897 3.392,2.9c0.712,0.007 0.981,-1.309 1.692,-1.302l2.049,1.726c-0.638,2.68 -0.568,2.676 -1.61,5.204c-7.193,-5.978 -7.067,-6.087 -9.026,-7.963c0.183,-1.26 0.367,-2.521 0.55,-3.781Z" style="fill:#d1e5cd;"/><path d="M1101.289,256.371c1.525,1.214 1.521,1.159 2.997,2.385c3.115,2.588 2.945,2.768 3.23,2.973c0.464,0.335 1.114,0.344 1.574,0.683c0.184,0.136 0.086,0.47 0.23,0.647c0.203,0.25 0.557,0.344 0.771,0.585c0.348,0.391 0.705,0.802 0.897,1.289c0.225,0.573 0.098,1.245 0.323,1.817l-0.643,1.51c-0.58,-0.504 -0.986,-1.187 -1.566,-1.69c-0.176,-0.153 -0.185,-0.113 -2.491,-1.522c-0.387,-0.442 -0.507,-1.077 -0.894,-1.52c-0.06,-0.068 -0.12,0.027 -0.959,-0.6c-0.791,-0.59 -0.807,-0.53 -1.643,-1.08c-0.462,-0.616 -0.923,-1.233 -1.385,-1.849c-0.147,-1.21 -0.295,-2.42 -0.442,-3.63Z" style="fill:#a0b29c;"/><path d="M1101.084,263.615c0.257,0.235 3.217,2.936 3.217,2.936c0.477,0.285 1.139,0.127 1.617,0.412c0.179,0.321 -0.011,0.768 0.168,1.088c0.14,0.252 0.502,0.293 0.713,0.489c0.306,0.285 0.493,0.694 0.828,0.944c0.442,0.33 1.023,0.438 1.465,0.768c-0.652,0.955 -1.303,1.91 -1.955,2.866c-0.489,-0.489 -0.802,-1.135 -1.291,-1.625c-1.498,-1.5 -2.411,-1.536 -2.56,-1.679c-0.405,-0.39 -0.542,-1 -0.924,-1.413c-0.173,-0.187 -0.211,-0.085 -2.655,-1.755l-0.636,-1.623c0.671,-0.469 1.342,-0.939 2.013,-1.408Z" style="fill:#93ad90;"/><path d="M1099.707,266.646c2.445,1.67 2.483,1.568 2.655,1.755c0.382,0.413 0.519,1.023 0.924,1.413c0.149,0.143 1.062,0.179 2.56,1.679c0.489,0.489 0.802,1.135 1.291,1.625c-0.226,0.11 -2.831,1.369 -2.831,1.369c-0.352,-0.048 -0.052,-0.45 -3.229,-3.05c-0.263,-0.215 -0.231,-0.214 -3.118,-2.884l1.749,-1.907Z" style="fill:#cee7cb;"/><path d="M1114.134,247.433c0.623,-0.194 0.726,-1.226 1.349,-1.419c0.919,-0.285 5.138,3.9 5.204,3.945c0.378,0.259 0.975,0.241 1.224,0.625c0.305,0.47 -0.046,1.192 0.259,1.662c-0.712,-0.007 -0.981,1.309 -1.692,1.302c-0.269,-0.003 -3.131,-2.657 -3.392,-2.9c-1.61,-1.493 -1.467,-1.598 -2.952,-3.216Z" style="fill:#9eb19a;"/><path d="M1103.999,254.015c0.839,0.03 1.018,-1.732 1.857,-1.702c0.813,0.029 0.992,1.307 1.619,1.826c0.547,0.453 0.971,-0.065 4.889,4.143c-0.666,0.669 -1.333,1.338 -1.999,2.007c-0.489,-0.471 -0.942,-0.978 -1.431,-1.449c-1.721,-1.66 -1.814,-1.513 -1.946,-1.669c-0.675,-0.802 -0.416,-0.965 -1.13,-1.719c-0.813,-0.858 -1.035,-0.565 -1.86,-1.436Z" style="fill:#aab5a6;"/><path d="M1085.237,292.902c-0.963,0.396 -0.833,0.58 -1.781,0.97c-0.114,0.047 -0.819,0.337 -1.491,0.376c-0.522,0.03 -1.035,-0.229 -1.557,-0.198c0.049,-0.21 0.613,-2.629 0.613,-2.629c0.152,-0.357 0.586,-0.547 0.729,-0.908c0.168,-0.424 0.042,-0.92 0.169,-1.358c0.057,-0.197 1.404,-3.703 2.478,0.672c0.112,0.455 -0.293,0.403 -0.169,0.857c0.323,1.183 0.681,1.017 1.009,2.218Z" style="fill:#dbc95b;"/><path d="M1113.925,255.43c0.269,0.245 3.367,3.059 3.367,3.059c0.208,0.141 0.721,-0.058 0.728,0.193c0.017,0.63 -0.506,1.16 -0.675,1.767c-0.171,0.614 -0.17,1.268 -0.341,1.882c-0.426,-0.377 -1.032,-0.512 -1.459,-0.889c-0.183,-0.162 0.041,-0.353 -2.052,-2.265c0.143,-1.249 0.287,-2.498 0.43,-3.746Z" style="fill:#e3f0e1;"/><path d="M1106.612,265.05c2.307,1.41 2.315,1.369 2.491,1.522c0.58,0.504 0.986,1.187 1.566,1.69l-1.577,1.99c-0.442,-0.33 -1.023,-0.438 -1.465,-0.768c-0.335,-0.25 -0.522,-0.659 -0.828,-0.944c-0.211,-0.196 -0.572,-0.238 -0.713,-0.489c-0.179,-0.321 0.011,-0.768 -0.168,-1.088l0.694,-1.913Z" style="fill:#cee4cb;"/><path d="M1101.084,263.615c-0.671,0.469 -1.342,0.939 -2.013,1.408c-0.221,-0.653 -1.128,-0.914 -1.349,-1.567c-0.211,-0.622 -0.405,-1.617 0.152,-1.963c0,0 2.953,1.952 3.21,2.122Z" style="fill:#c2c9c2;"/></g></svg>