<?xml version="1.0" encoding="UTF-8" standalone="no"?><!DOCTYPE svg PUBLIC "-//W3C//DTD SVG 1.1//EN" "http://www.w3.org/Graphics/SVG/1.1/DTD/svg11.dtd"><svg width="100%" height="100%" viewBox="0 0 2700 528" version="1.1" xmlns="http://www.w3.org/2000/svg" xmlns:xlink="http://www.w3.org/1999/xlink" xml:space="preserve" xmlns:serif="http://www.serif.com/" style="fill-rule:evenodd;clip-rule:evenodd;stroke-linejoin:round;stroke-miterlimit:2;"><g id="Fundo"><path d="M618.926,92.078c-3.85,0.503 -4.918,-1.032 -13.146,6.546c-10.628,9.788 -10.937,10.699 -11.346,11.91c-1.647,4.867 -0.214,5.031 -0.875,298.241c-0.022,9.874 2.141,9.515 14.101,20.167c0.431,0.384 0.389,0.386 5.36,4.827c4.355,3.891 5.127,3.482 45.614,3.485c112.081,0.009 112.034,0.189 121.773,-0.02c7.619,-0.164 6.408,-3.542 6.421,-26.016c0.005,-8.411 0.062,-102.894 -0.181,-105.142c-0.657,-6.091 -3.649,-4.884 -24.738,-4.987c-62.521,-0.307 -64.381,1.641 -66.068,-2.308c-0.154,-0.361 -0.047,-0.356 -0.635,-4.817c-0.016,-4.175 -0.032,-42.709 -0.034,-46.422c0.035,-13.577 -1.519,-19.329 5.83,-19.548c12.704,-0.379 12.693,0.734 158.882,0.059c10.008,-0.046 8.636,3.462 8.599,12.163c-0.084,19.721 -0.011,213.674 -0.209,215.016c-0.811,5.518 -3.607,6.547 -46.001,43.394c-11.405,9.913 -11.22,10.99 -17.983,11.072c-17.794,0.217 -17.759,-0.55 -222.443,-0.031c-11.818,0.03 -11.793,-1.315 -20.128,-9.023c-10.231,-9.462 -37.452,-32.899 -40.74,-35.73c-5.037,-4.337 -5.767,-3.832 -8.757,-9.554l-0.258,-2.565l-0.024,-2.489l0.003,-2.453c0.244,-56.785 -0.454,-370.964 0.291,-373.937c0.885,-3.53 1.293,-3.476 33.603,-33.02c1.372,-1.254 1.377,-1.237 16.27,-14.316c3.894,-3.42 5.891,-8.074 14.439,-8.118c17.371,-0.088 17.349,0.162 217.136,0.088c13.014,-0.005 14.38,-1.632 23.516,6.967c48.187,45.351 50.683,44.376 51.337,50.97c0.106,1.072 0.043,87.071 -0.119,88.069c-0.931,5.742 -3.838,4.274 -42.958,4.295c-35.265,0.019 -37.311,0.852 -38.581,-2.326c-1.64,-4.105 1.486,-53.137 -1.805,-57.861c-1.327,-1.905 -1.516,-1.749 -8.919,-8.615c-4.116,-3.817 -3.991,-3.875 -8.654,-7.013c-6.709,-1.095 -6.666,-0.929 -18.843,-0.988c-3.528,-0.006 -7.055,-0.012 -10.583,-0.018c-2.647,0.006 -5.293,0.011 -7.94,0.017c-4.415,0.01 -8.83,0.021 -13.246,0.031c-10.593,0.001 -21.185,0.002 -31.778,0.003c-3.53,-0.003 -7.06,-0.006 -10.591,-0.009c-5.296,-0.005 -10.592,-0.009 -15.888,-0.014c-2.647,-0.001 -5.294,-0.001 -7.942,-0.002c-2.65,-0.004 -5.299,-0.007 -7.949,-0.011c-7.059,0.008 -14.118,0.015 -21.177,0.023l-2.639,0.009Z" style="fill:#fefefe;"/><path d="M2041.21,92.028c-4.159,0.273 -7.809,-0.877 -7.918,6.476c-0.224,15.047 0.145,15.036 -0.12,188.099c-0.165,107.524 0.63,107.465 0.48,214.975c-0.014,9.774 -4.802,8.049 -16.822,8.018c-62.155,-0.162 -62.309,0.455 -65.042,-0.612c-3.054,-1.192 -2.353,-2.18 -2.414,-31.837c-0.047,-149.83 -0.094,-299.659 -0.14,-449.489c-0.003,-7.102 -0.024,-9.208 8.02,-9.211c20.789,-0.008 258.526,-0.102 259.86,0.187c3.243,0.701 3.796,0.82 30.815,25.326c5.399,4.899 10.799,9.797 16.198,14.696c14.661,13.266 15.773,13.295 15.849,20.299c0.097,8.989 -0.595,8.924 -0.015,112.373c0.062,11.004 -0.241,11.509 -8.977,19.147c-3.522,3.079 -22.07,19.296 -43.474,39c-31.987,29.445 -32.482,29.237 -33.236,32.001c-0.932,3.417 1.83,7.615 30.056,61.743c1.198,2.297 12.104,23.212 14.938,28.724c39.39,76.622 69.472,132.504 69.982,134.523c0.793,3.14 -4.752,3.24 -5.262,3.25c-3.736,0.067 -62.368,-0.029 -67.791,-0.038c-9.993,-0.016 -11.067,-0.347 -15.321,-8.47c-7.457,-14.239 -103.35,-190.009 -109.634,-202.222c-8.461,-16.446 -18.338,-29.162 -15.439,-34.181c1.303,-2.255 1.475,-2.196 58.533,-54.476c38.423,-35.206 38.756,-35.141 39.752,-38.136c1.442,-4.336 0.91,-4.439 0.619,-56.587c-0.046,-8.176 -0.986,-8.163 -6.306,-13.098c-1.547,-1.386 -3.239,-3.202 -8.202,-7.342c-4.508,-3.761 -6.071,-3.12 -22.543,-3.141c-16.248,0.009 -32.495,0.018 -48.743,0.028c-22.567,-0.008 -45.135,-0.015 -67.702,-0.023Z" style="fill:#fefefe;"/><path d="M2472.69,92.104c-25.435,0.027 -25.425,-0.074 -27.632,0.035c-5.901,0.293 -6.569,1.154 -6.655,6.396c-0.141,8.598 -0.041,8.565 0.106,107.486c0.026,17.263 -1.735,21.691 6.52,21.99c10.308,0.373 152.697,0.19 165.975,0.173c28.778,-0.037 31.666,-0.997 32.263,4.785c0.279,2.697 0.189,56.563 0.097,60.961c-0.172,8.289 -3.648,7.158 -12.998,7.164c-58.091,0.045 -116.182,0.09 -174.273,0.135c-13.153,0.056 -17.589,-1.745 -17.67,7.356c-0.097,10.866 0.04,92.141 0.053,100.153c0.042,25.099 -1.012,26.862 3.997,28.36c0.129,0.039 143.516,0.622 163.23,-0.276c23.44,0.573 23.416,0.331 30.342,0.09c22.248,0.824 39.101,0.037 46.962,0.343c7.828,0.305 6.125,6.908 6.119,10.561c-0.082,51.751 0.2,51.722 -0.034,56.215c-0.364,6.989 -7.52,5.587 -14.469,5.579c-290.174,-0.339 -290.151,0.365 -315.378,0.036c-4.68,-0.061 -5.651,0.426 -7.295,-3.419c-0.306,-0.716 -0.243,-457.584 -0.16,-480.949c0.029,-8.18 3.729,-6.768 13.014,-6.752c176.121,0.298 308.082,-0.087 312.531,0.079c7.094,0.264 5.842,3.261 5.806,28.655c-0.06,42.182 0.63,43.361 -2.724,44.445c-0.071,0.023 -0.072,0.47 -199.427,0.396c-2.767,-0 -5.534,-0 -8.301,-0Z" style="fill:#fefefe;"/><path d="M269.288,199.063c-0.706,-1.686 -5.117,-16.231 -9.962,-4.763c-4.217,9.979 -132.167,260.391 -138.194,272.142c-18.776,36.606 -18.289,36.766 -20.217,39.821c-2.464,3.903 -3.737,3.503 -40.556,3.336c-39.95,-0.181 -42.455,1.055 -42.826,-2.901c-0.181,-1.927 10.676,-22.16 11.692,-24.054c14.506,-27.035 197.005,-386.728 212.708,-418.912c18.922,-38.783 18.496,-38.885 20.295,-42.194c0.2,-0.368 2.365,-4.352 4.982,-2.723c0.753,0.468 2.33,4.492 2.489,4.897c1.454,3.708 14.35,30.81 15.622,33.481c71.08,149.369 70.265,149.64 76.764,162.512c7.429,14.714 118.406,252.734 128.319,272.761c5.913,11.946 9.681,17.048 0.104,17.164c-8.605,0.104 -13.129,0.158 -107.568,0.044c-152.43,-0.185 -152.546,0.407 -154.611,-0.323c-2.99,-1.057 -3.213,-2.635 12.572,-32.987c16.946,-32.583 15.653,-33.296 18.553,-35.455c2.812,-2.093 3.4,-1.098 90.396,-1.354c28.913,-0.085 29.928,0.335 30.442,-1.519c0.584,-2.105 -0.928,-4.9 -2.15,-7.398c-19.211,-39.277 -27.813,-58.719 -28.937,-61.109c-6.41,-13.632 -72.022,-153.16 -79.915,-170.467Z" style="fill:#fefefe;"/><path d="M1683.288,199.063c-0.706,-1.686 -5.117,-16.231 -9.962,-4.763c-4.217,9.979 -132.167,260.391 -138.194,272.142c-18.776,36.606 -18.289,36.766 -20.217,39.821c-2.464,3.903 -3.737,3.503 -40.556,3.336c-39.95,-0.181 -42.455,1.055 -42.826,-2.901c-0.181,-1.927 10.676,-22.16 11.692,-24.054c14.506,-27.035 197.005,-386.728 212.708,-418.912c18.922,-38.783 18.496,-38.885 20.295,-42.194c0.2,-0.368 2.365,-4.352 4.982,-2.723c0.753,0.468 2.33,4.492 2.489,4.897c1.454,3.708 14.35,30.81 15.622,33.481c71.08,149.369 70.265,149.64 76.764,162.512c7.429,14.714 118.406,252.734 128.319,272.761c5.913,11.946 9.681,17.048 0.104,17.164c-8.605,0.104 -13.129,0.158 -107.568,0.044c-152.43,-0.185 -152.546,0.407 -154.611,-0.323c-2.99,-1.057 -3.213,-2.635 12.572,-32.987c16.946,-32.583 15.653,-33.296 18.553,-35.455c2.812,-2.093 3.4,-1.098 90.396,-1.354c28.913,-0.085 29.928,0.335 30.442,-1.519c0.584,-2.105 -0.928,-4.9 -2.15,-7.398c-19.211,-39.277 -27.813,-58.719 -28.937,-61.109c-6.41,-13.632 -72.022,-153.16 -79.915,-170.467Z" style="fill:#fefefe;"/><path d="M1087.54,44.728c-0.036,-22.527 -1.023,-24.595 4.093,-26.1c1.253,-0.369 290.307,-0.125 315.551,-0.104c70.583,0.059 71.42,-0.629 73.893,1.696c1.105,1.038 1.058,1.232 1.002,41.62c-0.038,27.701 0.696,29.223 -3.795,30.122c-2.185,0.437 -138.446,-0.498 -142.422,0.48c-4.767,1.172 -3.739,4.433 -3.753,25.602c-0.59,15.06 -0.101,26.977 -0.005,29.322c0.005,5.703 0.009,11.407 0.014,17.11c-0.236,8.584 -0.381,8.527 -0.035,17.105c0.004,2.444 0.008,4.888 0.013,7.332c-0.347,8.604 -0.232,8.549 -0.007,17.104l0.003,2.446c-0.629,16.627 -0.106,38.22 -0.025,41.543c-0.002,6.517 -0.004,13.033 -0.006,19.55c-0.486,12.016 -0.211,11.987 -0.011,19.544c0.005,8.147 0.01,16.294 0.014,24.44c-0.279,9.84 -0.265,9.771 -0.017,19.552c0.006,5.703 0.011,11.405 0.017,17.108c-0.249,6.133 -0.171,6.09 -0.03,12.215c-0.032,1.368 -0.208,8.788 0.017,17.108c-0.31,7.39 -0.207,7.323 -0.033,14.659c0.014,4.076 0.027,8.151 0.041,12.227c-0.22,7.334 -0.222,7.259 -0.053,14.658c-0.191,4.897 -0.192,4.858 -0.004,9.777c-0.184,6.133 -0.273,6.085 -0.01,12.22c0.015,3.258 0.029,6.515 0.044,9.773c-0.262,9.832 -0.259,9.76 -0.025,19.545c-0.012,11.269 0.014,12.822 0.031,17.112c-0.556,13.637 -0.166,13.585 -0.231,14.765c-0.199,3.587 -1.398,3.57 -1.724,4.403c-1.818,0.347 -1.635,0.955 -5.5,1.049c-0.238,0.006 -0.227,0.002 -2.978,-0.001c-17.967,-0.018 -73.528,0.079 -76.773,-0.011c-4.314,-0.12 -4.29,-0.933 -5.358,-1.165c-0.25,-0.619 -1.022,-1.03 -1.272,-1.649c-0.671,-1.662 -0.435,-3.642 -0.507,-39.39c0.005,-4.886 0.01,-9.772 0.016,-14.658c0.004,-4.889 0.007,-9.778 0.011,-14.667l-0.006,-4.881c-0.002,-4.891 -0.004,-9.781 -0.007,-14.672l0.003,-2.442c-0.007,-14.7 -0.006,-14.654 -0.22,-21.998c-0.011,-5.701 -0.023,-11.402 -0.034,-17.103c0.364,-14.339 0.389,-21.646 0.011,-36.651c-0.012,-6.518 -0.024,-13.036 -0.035,-19.554c0.16,-4.167 0.484,-27.08 0.037,-46.43c-0.003,-2.445 -0.006,-4.89 -0.009,-7.334c0.202,-7.375 0.201,-7.299 -0.005,-14.66c0.157,-6.396 -0.026,-7.09 -0.026,-34.214c0.624,-24.729 0.112,-44.966 0.013,-48.876c-0.009,-5.703 -0.018,-11.405 -0.027,-17.108c0.203,-7.388 0.202,-7.309 0.01,-14.656l-0.006,-2.447c0.318,-12.261 0.327,-12.208 0.027,-24.433c0.007,-8.721 0.381,-15.914 -1.238,-17.25c-1.904,-1.572 -2.366,-1.412 -76.907,-1.425c-19.675,0.001 -39.35,0.001 -59.025,0.002c-8.448,-0.148 -8.414,-0.01 -9.122,-0.159c-4.377,-0.922 -3.636,-2.43 -3.646,-34.932c0.007,-4.073 0.014,-8.145 0.022,-12.218Z" style="fill:#fefefe;"/><path d="M1028.619,247.618c-0.151,6.11 -0.232,6.065 0.014,12.209c0.001,2.736 0.01,18.706 -0.075,34.206c-0.247,9.771 -0.235,9.693 0.007,19.543c0.001,4.887 0.002,9.775 0.003,14.662c-0.089,3.517 -0.539,21.296 0.019,43.967c-0.163,49.511 -0.145,49.449 -0.256,53.748c0.015,9.819 -0.173,9.76 0.221,19.541c-0.323,11.52 0.298,58.875 -0.656,61.378c-1.287,3.377 -2.834,2.755 -36.632,2.821c-4.299,0.008 -52.925,0.103 -53.733,-0.009c-6.366,-0.882 -4.874,-3.332 -4.846,-44.641c0.052,-78.081 -0.369,-440.67 0.031,-442.094c1.246,-4.432 2.4,-4.31 7.948,-4.358c37.478,-0.326 73.938,-0.076 80.367,-0.032c9.963,0.068 7.942,4.209 7.96,16.525c0.277,195.55 -1.032,195.541 -0.372,212.535Z" style="fill:#fdfdfe;"/></g></svg>